<svg width="512" height="511" xmlns="http://www.w3.org/2000/svg">

 <g>
  <title>background</title>
  <rect fill="none" id="canvas_background" height="513" width="514" y="-1" x="-1"/>
 </g>
 <g>
  <title>Layer 1</title>
  <path fill="#ff7f00" id="svg_1" d="m497,193.875499l-40.16797,0c-1.21484,0 -2.41797,0.05078 -3.61328,0.12891c-9.02344,-8.05078 -19.00391,-14.69922 -29.67969,-19.82031c24.34766,-17.29297 40.26172,-45.71094 40.26172,-77.77735c0,-52.5664 -42.76562,-95.33203 -95.33203,-95.33203c-52.57031,0 -95.33594,42.76563 -95.33594,95.33203c0,25.26172 9.88282,48.25781 25.97657,65.33203l-70.14844,0c16.09375,-17.07422 25.97265,-40.07031 25.97265,-65.33203c0,-52.5664 -42.76562,-95.33203 -95.33203,-95.33203c-52.5664,0 -95.33593,42.76563 -95.33593,95.33203c0,29.48047 13.45312,55.875 34.53906,73.37891c-14.60156,5.45703 -28.14844,13.61719 -40.02735,24.21875c-1.19531,-0.07813 -2.39453,-0.12891 -3.60937,-0.12891l-40.16797,0c-8.28516,0 -15,6.71485 -15,15l0,80.33203c0,8.28516 6.71484,15 15,15l1.06641,0l0,113.53516c0,8.28125 6.71484,15 15,15l449.86718,0c8.28516,0 15,-6.71875 15,-15l0,-113.53516l1.06641,0c8.28516,0 15,-6.71484 15,-15l0,-80.33203c0,-8.28516 -6.71484,-15 -15,-15zm-15,80.33203l-25.16797,0c-13.875,0 -25.16797,-11.28906 -25.16797,-25.16797c0,-13.875 11.29297,-25.16406 25.16797,-25.16406l25.16797,0l0,50.33203zm-178.86719,-177.80078c0,-36.02344 29.3086,-65.33203 65.33203,-65.33203c36.02344,0 65.33594,29.30859 65.33594,65.33203c0,36.02735 -29.30859,65.33203 -65.33203,65.33203c-36.02734,0 -65.33594,-29.30468 -65.33594,-65.33203zm-143.53125,-65.33203c36.02344,0 65.33203,29.30859 65.33203,65.33203c0,36.02344 -29.30859,65.33203 -65.33203,65.33203c-36.02734,0 -65.33593,-29.30468 -65.33593,-65.33203c0,-36.02344 29.30859,-65.33203 65.33593,-65.33203zm-129.60156,192.80078l25.16797,0c13.875,0 25.16797,11.28906 25.16797,25.16797c0,13.875 -11.29297,25.16406 -25.16797,25.16406l-25.16797,0l0,-50.33203zm16.06641,80.33203l9.10156,0c30.41797,0 55.16797,-24.74609 55.16797,-55.16797c0,-16.84375 -7.60156,-31.9414 -19.53906,-42.0664l0.35546,0c15.50391,-9.91797 33.53516,-15.23047 52.38282,-15.23047l142.88672,0c-27.75782,23.39844 -45.42188,58.40625 -45.42188,97.46484l0,113.53516l-130.66797,0l0,-65.33594c0,-8.28125 -6.71484,-15 -15,-15c-8.28125,0 -15,6.71875 -15,15l0,65.33203l-34.26562,0l0,-98.53125zm419.86718,98.53125l-34.26953,0l0,-65.33203c0,-8.28125 -6.71484,-15 -15,-15c-8.28125,0 -15,6.71875 -15,15l0,65.33203l-130.66406,0l0,-113.53125c0,-53.74218 43.72266,-97.46484 97.46875,-97.46484c18.93359,0 37.03906,5.35937 52.58203,15.35937c-11.85156,10.12891 -19.38281,25.16407 -19.38281,41.94141c0,30.41797 24.74609,55.16406 55.16797,55.16406l9.09765,0l0,98.53125zm0,0"/>
 </g>
</svg>